<svg t="1613575146403" class="icon" viewBox="0 0 1024 1024" version="1.1" xmlns="http://www.w3.org/2000/svg" p-id="2937" width="64" height="64"><path d="M214.8 389.9c-4.2 11.2 2 18.3 0 61-0.5 11.5-50.1 63.5-69.7 117.5C125.5 622 122.9 678 153 700s58.1-73.2 61.8-59.4c1.6 6 3.6 12.3 6 18.8 9.6 26 25.8 54.7 49.3 81.5 4.8 5.5-29 15.5-49.3 49.9-20.3 34.4 5.8 97.1 106.5 97.1 129.9 0 159-45.7 161.6-45.5 9.7 0.7 10.3 0 20.6 0 12.6 0 7.4 1 19 0 6.3-0.5 69.5 54.7 156.9 45.5 149-15.7 126.2-65.6 114.5-97.1-12.2-32.9-55.4-48.3-53.4-50.4 35.7-39.4 41.3-63.6 53.4-99.9 5-14.9 39.5 81.9 66.2 59.4 11.1-9.4 33.3-48.5 11.1-131.5-22.2-83-65.1-101.9-64.2-117.4 1.9-32.4 0.8-55.1-0.8-61-7.9-28.5-24.5-22.2-24.5-28.5C787.7 197.2 664.2 64 511.8 64c-152.4 0-275.9 133.2-275.9 297.5-0.1 12.9-11.6 3.3-21.1 28.4z" fill="#68A5E1" p-id="2938"></path></svg>