<?xml version="1.0" standalone="no"?><!DOCTYPE svg PUBLIC "-//W3C//DTD SVG 1.1//EN" "http://www.w3.org/Graphics/SVG/1.1/DTD/svg11.dtd"><svg t="1603346684599" class="icon" viewBox="0 0 1024 1024" version="1.1" xmlns="http://www.w3.org/2000/svg" p-id="3168" xmlns:xlink="http://www.w3.org/1999/xlink" width="200" height="200"><defs><style type="text/css"></style></defs><path d="M147.40869594 646.90086969V407.65217375c0-202.39304345 154.60173937-367.3043475 346.43478187-367.3043475s346.43478281 164.91130406 346.43478282 367.3043475v236.57739188a8.34782625 8.34782625 0 0 0 1.66956562 5.008695l44.07652125 59.10260906a54.26086969 54.26086969 0 0 1-43.49217375 86.69217374H157.21739094a54.26086969 54.26086969 0 0 1-46.99826063-81.34956562l36.06260907-62.608695a8.34782625 8.34782625 0 0 0 1.12695656-4.17391312z m670.16347781 81.39130406l-29.17565156-39.15130406a75.13043437 75.13043437 0 0 1-14.90086969-44.91130407V407.65217375c0-166.4556525-125.67652219-300.52173937-279.65217469-300.52173937-153.93391313 0-279.65217375 134.06608687-279.65217375 300.52173937v239.24869594a75.13043437 75.13043437 0 0 1-10.01739094 37.56521718l-25.29391312 43.82608688h638.69217375zM371.75652219 938.57391312a310.12173938 310.12173938 0 0 0 139.99304344 33.09913033 310.12173938 310.12173938 0 0 0 140.57739094-33.39130407 33.39130406 33.39130406 0 1 0-30.21913032-59.52 243.33913031 243.33913031 0 0 1-110.35826062 26.128695 243.33913031 243.33913031 0 0 1-109.94086969-25.87826063 33.39130406 33.39130406 0 0 0-30.05217375 59.60347875z" p-id="3169"></path></svg>