<svg t="1625823797557" class="icon" viewBox="0 0 1024 1024" version="1.1" xmlns="http://www.w3.org/2000/svg" p-id="1278" width="200" height="200"><path d="M981.138286 571.928381 511.902476 109.958095 42.666667 571.928381 0 529.92 511.902476 25.965714 1023.804952 529.92 981.138286 571.928381ZM166.692571 548.376381C179.858286 548.376381 190.512762 559.006476 190.512762 572.123429L190.512762 799.061333C190.512762 870.473143 251.14819 952.124952 325.948952 952.124952L698.051048 952.124952C772.85181 952.124952 833.487238 870.473143 833.487238 799.061333L833.487238 572.123429C833.487238 559.006476 844.141714 548.376381 857.307429 548.376381 870.448762 548.376381 881.127619 559.006476 881.127619 572.123429L881.127619 833.365333C881.127619 925.184 806.473143 999.619048 714.410667 999.619048L309.589333 999.619048C217.526857 999.619048 142.872381 925.184 142.872381 833.365333L142.872381 572.123429C142.872381 559.006476 153.551238 548.376381 166.692571 548.376381Z" p-id="1279"></path></svg>