<?xml version="1.0" standalone="no"?><!DOCTYPE svg PUBLIC "-//W3C//DTD SVG 1.1//EN" "http://www.w3.org/Graphics/SVG/1.1/DTD/svg11.dtd"><svg t="1626160286181" class="icon" viewBox="0 0 1024 1024" version="1.1" xmlns="http://www.w3.org/2000/svg" p-id="8606" xmlns:xlink="http://www.w3.org/1999/xlink" width="200" height="200"><defs><style type="text/css"></style></defs><path d="M467.806889 597.321984c9.260806-9.260806 6.945604-23.288203 0-32.549009-9.260806-9.260806-23.288203-9.260806-32.549009 0L49.436361 945.964091s-2.315201 0-2.315201 2.315201V585.745977c0-13.891209-9.260806-23.288203-23.288203-23.288203-13.891209 0-23.288203 9.260806-23.288204 23.288203V1022.774305h443.973933c13.891209 0 23.288203-9.260806 23.288203-23.288203 0-13.891209-9.260806-23.288203-23.288203-23.288203H81.98537s0 2.315201 2.315202 0l383.506317-378.875915zM584.111717 0c-13.891209 0-23.288203 9.260806-23.288203 23.288203 0 13.891209 9.260806 23.288203 23.288203 23.288203h362.533316s0 2.315201-2.315202 4.630403L563.138715 434.713127c-9.260806 9.260806-6.945604 23.288203 0 32.549009 9.260806 9.260806 23.288203 9.260806 32.549009 2.315201L976.87884 86.07102v-2.315201 362.533315c0 13.891209 9.260806 23.288203 23.288203 23.288203 13.891209 0 23.288203-9.260806 23.288204-23.288203V0H584.111717z m0 0" p-id="8607"></path></svg>