<?xml version="1.0" standalone="no"?><!DOCTYPE svg PUBLIC "-//W3C//DTD SVG 1.1//EN" "http://www.w3.org/Graphics/SVG/1.1/DTD/svg11.dtd"><svg t="1626160269195" class="icon" viewBox="0 0 1024 1024" version="1.1" xmlns="http://www.w3.org/2000/svg" p-id="8478" xmlns:xlink="http://www.w3.org/1999/xlink" width="200" height="200"><defs><style type="text/css"></style></defs><path d="M8.082269 983.197769c-9.248506 9.248506-6.936379 23.257272 0 32.505777 9.248506 9.248506 23.257272 9.248506 32.505778 0l385.309071-382.996945s2.312126 0 2.312127-2.312126v362.051799c0 13.872759 9.248506 23.257272 23.257272 23.257272 13.872759 0 23.257272-9.248506 23.257272-23.257272V558.44654H28.891407c-13.872759 0-23.257272 9.248506-23.257272 23.257272 0 13.872759 9.248506 23.257272 23.257272 23.257272H391.079214s0-2.312126-2.312126 0L8.082269 983.197769z m986.461947-508.395803c13.872759 0 23.257272-9.248506 23.257272-23.257272 0-13.872759-9.248506-23.257272-23.257272-23.257272H632.492417s0-2.312126 2.312126-4.624253L1015.489362 40.802231c9.248506-9.248506 6.936379-23.257272 0-32.505777-9.248506-9.248506-23.257272-9.248506-32.505778-2.312127L602.298765 388.981272v2.312127V29.241599c0-13.872759-9.248506-23.257272-23.257271-23.257272-13.872759 0-23.257272 9.248506-23.257272 23.257272v445.696374h438.759994z m0 0" p-id="8479"></path></svg>