<svg t="1613485971839" class="icon" viewBox="0 0 1024 1024" version="1.1" xmlns="http://www.w3.org/2000/svg" p-id="1360" width="64" height="64"><path d="M927.1 701.2c0 140.9-157.2 255.1-351.1 255.1s-338-25.1-334.1-258.9c2.4-140.9 143.2-245.2 336.6-258.9 209.1-15 348.6 121.8 348.6 262.7z" fill="#515151" p-id="1361" data-spm-anchor-id="a313x.7781069.0.i0" class=""></path><path d="M509.8 968c-57.9 0-112.9-6.2-163.6-18.4-51.6-12.4-97.2-30.7-135.7-54.4-40.5-24.9-72.2-55.3-94.1-90.4-23.4-37.3-35.3-79-35.3-124.2 0-45.1 11.7-88.8 34.8-129.9 21.9-39.2 53.2-74.4 93-104.5 80.7-61.1 187.5-89.5 301-89.5 113.3 0 220.2 28.4 301 89.5 39.8 30.1 71.1 65.2 93 104.5 23.1 41.1 34.8 84.9 34.8 129.9 0 45.2-11.9 86.9-35.3 124.3-21.9 35-53.6 65.4-94.1 90.4-38.5 23.7-84.1 42-135.7 54.4-50.8 12.1-105.9 18.3-163.8 18.3z m0-570.6c-104.4 0-202.3 26.5-275.7 82.1-71.7 54.3-111.2 125.7-111.2 201.1 0 92.4 59.6 148.4 109.5 179.1 69.7 42.9 168.2 66.6 277.4 66.6s207.7-23.6 277.4-66.6c50-30.8 109.5-86.7 109.5-179.1 0-75.5-39.5-146.8-111.2-201.1-73.4-55.7-171.3-82.1-275.7-82.1z" fill="#515151" p-id="1362"></path><path d="M498 471.5c-9-1.8-16.1-9.4-16.8-19 0-0.5-4.4-57.6-32.3-122.5-36.6-85.2-93.6-142.8-171.3-171.9-10.8-4-16.3-16.1-12.3-26.9s16.1-16.3 26.9-12.3c49.2 18.3 91.1 47.2 126.3 86 28 30.8 51.4 67.8 69.3 109.9 30.7 71.9 34.9 133.3 35 134.9 0.8 11.5-7.9 21.4-19.3 22.3-2 0-3.8-0.2-5.5-0.5zM501.9 337.9l-4.2-18.4c-1-4.5-12.8-110.7 49.6-196.4 42.2-57.9 112.3-91.5 208.4-99.9l16.6-1.5 5.1 15.9c21.3 66.6 16.3 125.1-15 174.1-65.3 102-241.1 123.8-241.8 123.9l-18.7 2.3zM742.3 66.8c-74.7 9.4-129.9 36.6-162.3 81-36.9 50.7-47.4 112.2-44.5 143 41.7-8.6 149-34.9 191.7-101.6 21.9-34 26.9-75.1 15.1-122.4z" fill="#515151" p-id="1363"></path><path d="M426 494.2c-11.4 0-20.7-9.1-20.9-20.6-0.2-11.5 9-21.1 20.5-21.2l157.2-2.7h0.4c11.4 0 20.7 9.1 20.9 20.6 0.2 11.5-9 21.1-20.5 21.2l-157.2 2.7h-0.4z" fill="#515151" p-id="1364"></path><path d="M706.1 674.3m-26.2 0a26.2 26.2 0 1 0 52.4 0 26.2 26.2 0 1 0-52.4 0Z" fill="#515151" p-id="1365"></path><path d="M630.8 787.8m-26.2 0a26.2 26.2 0 1 0 52.4 0 26.2 26.2 0 1 0-52.4 0Z" fill="#515151" p-id="1366"></path><path d="M751.6 761.6m-26.2 0a26.2 26.2 0 1 0 52.4 0 26.2 26.2 0 1 0-52.4 0Z" fill="#515151" p-id="1367"></path></svg>