<?xml version="1.0" standalone="no"?><!DOCTYPE svg PUBLIC "-//W3C//DTD SVG 1.1//EN" "http://www.w3.org/Graphics/SVG/1.1/DTD/svg11.dtd"><svg class="icon" width="200px" height="200.00px" viewBox="0 0 1024 1024" version="1.1" xmlns="http://www.w3.org/2000/svg"><path fill="" d="M896 160H128a32 32 0 0 0-32 32v640a32 32 0 0 0 32 32h768a32 32 0 0 0 32-32V192a32 32 0 0 0-32-32z m-32 640H160V224h704v576z"  /><path fill="" d="M325.376 625.744a31.92 31.92 0 0 0 44.368 8.88 32 32 0 0 0 8.88-44.368L326.464 512l52.16-78.256a32 32 0 1 0-53.248-35.488l-64 96a32 32 0 0 0 0 35.504l64 95.984z m328.88 8.88a31.952 31.952 0 0 0 44.368-8.88l64-96a32 32 0 0 0 0-35.504l-64-96a32 32 0 0 0-53.248 35.488L697.552 512l-52.176 78.256a32 32 0 0 0 8.88 44.368z m-180.528 68.752a32 32 0 0 0 37.648-25.088l64-320a31.984 31.984 0 0 0-25.088-37.648 31.92 31.92 0 0 0-37.664 25.104l-64 320a31.984 31.984 0 0 0 25.104 37.632z"  /></svg>