<svg t="1625734499260" class="icon" viewBox="0 0 1024 1024" version="1.1" xmlns="http://www.w3.org/2000/svg" p-id="2552" width="200" height="200"><path d="M186.666667 817.322667h-21.632a15.829333 15.829333 0 0 1-15.786667-15.786667V354.133333c0-8.704 7.082667-15.786667 15.786667-15.786666h21.632c8.661333 0 15.786667 7.082667 15.786666 15.786666v447.402667c0 8.704-7.125333 15.786667-15.786666 15.786667z" fill="" p-id="2553"></path><path d="M879.701333 817.322667H165.546667a16.341333 16.341333 0 0 1-16.298667-16.298667v-22.272c0-8.96 7.338667-16.298667 16.298667-16.298667h714.24c8.96 0 16.256 7.338667 16.256 16.298667v22.272c0 8.96-7.338667 16.298667-16.298667 16.298667z" fill="" p-id="2554"></path><path d="M258.986667 537.514667l117.162666-67.84 119.338667-289.152 120.405333 436.266666 117.76-234.368L853.333333 629.333333V682.666667H256v-3.029334z" fill="" p-id="2555"></path></svg>