<?xml version="1.0" standalone="no"?><!DOCTYPE svg PUBLIC "-//W3C//DTD SVG 1.1//EN" "http://www.w3.org/Graphics/SVG/1.1/DTD/svg11.dtd"><svg class="icon" width="200px" height="200.00px" viewBox="0 0 1024 1024" version="1.1" xmlns="http://www.w3.org/2000/svg"><path fill="" d="M969.386667 95.573333 54.613333 95.573333C23.893333 95.573333 0 119.466667 0 146.773333l0 607.573333c0 27.306667 23.893333 51.2 54.613333 51.2l358.4 0 0 102.4L324.266667 907.946667c-13.653333 0-27.306667 13.653333-27.306667 27.306667 0 17.066667 13.653333 27.306667 27.306667 27.306667l378.88 0c13.653333 0 27.306667-13.653333 27.306667-27.306667 0-17.066667-13.653333-27.306667-27.306667-27.306667l-88.746667 0 0-102.4 351.573333 0c30.72 0 54.613333-23.893333 54.613333-51.2L1020.586667 146.773333C1024 119.466667 1000.106667 95.573333 969.386667 95.573333L969.386667 95.573333 969.386667 95.573333 969.386667 95.573333zM976.213333 143.36l0 491.52L47.786667 634.88 47.786667 143.36 976.213333 143.36 976.213333 143.36 976.213333 143.36zM460.8 911.36l0-102.4 109.226667 0 0 102.4L460.8 911.36 460.8 911.36 460.8 911.36zM47.786667 761.173333l0-75.093333 928.426667 0 0 75.093333L47.786667 761.173333 47.786667 761.173333 47.786667 761.173333zM47.786667 761.173333M621.226667 395.946667l-215.04 126.293333L406.186667 273.066667 621.226667 395.946667 621.226667 395.946667zM621.226667 395.946667" /></svg>