<svg t="1614651795963" class="icon" viewBox="0 0 1025 1024" version="1.1" xmlns="http://www.w3.org/2000/svg" p-id="5563" width="64" height="64"><path d="M840.222 125.477H182.895c-65.963 0-119.487 53.58-119.487 119.605v391.41c0 65.903 53.523 119.425 119.487 119.425h336.45S658.526 869.21 677.408 883.969c18.883 14.691 26.511 11.376 26.26 0-0.188-11.384-0.128-128.052-0.128-128.052h136.682c66.091 0 119.548-53.522 119.548-119.426V245.082c0.001-66.026-53.457-119.605-119.548-119.605z m-520.709 384.15c-35.327 0-64.024-28.572-64.024-64.025 0-35.45 28.697-64.025 64.024-64.025s64.026 28.576 64.026 64.025c0 35.453-28.698 64.025-64.026 64.025z m192.078 0c-35.328 0-64.026-28.572-64.026-64.025 0-35.45 28.698-64.025 64.026-64.025 35.327 0 64.026 28.576 64.026 64.025 0 35.453-28.7 64.025-64.026 64.025z m192.077 0c-35.324 0-64.024-28.572-64.024-64.025 0-35.45 28.7-64.025 64.024-64.025 35.327 0 64.027 28.576 64.027 64.025 0 35.453-28.701 64.025-64.027 64.025z" p-id="5564"></path></svg>